<?xml version="1.0" encoding="iso-8859-1"?>
<!-- Uploaded to: SVG Repo, www.svgrepo.com, Generator: SVG Repo Mixer Tools -->
<svg height="800px" width="800px" version="1.1" id="Layer_1" xmlns="http://www.w3.org/2000/svg" xmlns:xlink="http://www.w3.org/1999/xlink" 
	 viewBox="0 0 408.759 408.759" xml:space="preserve">
<g>
	<path style="fill:#FFBE00;" d="M204.384,408.759c-58.121,0-113.674-24.869-152.417-68.227
		C18.459,303.057,0.004,254.703,0.004,204.378C0.004,91.685,91.689,0,204.384,0c50.317,0,98.674,18.455,136.165,51.964
		c43.346,38.762,68.205,94.314,68.205,152.415C408.755,317.074,317.075,408.759,204.384,408.759"/>
	<path style="fill:#F4502A;" d="M377.752,204.377c0,18.08-2.77,35.52-7.911,51.899c-20.391,65.09-78.099,113.66-148.07,120.611
		h-0.009c-5.721,0.58-11.51,0.87-17.38,0.87c-51.39,0-97.561-22.359-129.301-57.881c-0.26-0.29-0.521-0.589-0.79-0.879
		c-26.95-30.56-43.291-70.68-43.291-114.62c0-95.751,77.621-173.38,173.381-173.38c43.95,0,84.069,16.348,114.629,43.289
		c0.29,0.27,0.591,0.53,0.881,0.791c27.949,25,47.75,58.92,54.909,97.29C376.742,182.736,377.752,193.438,377.752,204.377"/>
	<path style="fill:#C29100;" d="M74.537,319.267c1.034,1.167,2.085,2.323,3.15,3.461c-0.879-0.941-1.748-1.893-2.607-2.853
		C74.9,319.675,74.72,319.47,74.537,319.267"/>
	<path style="fill:#BA3D20;" d="M204.384,30.999c-95.76,0-173.38,77.621-173.38,173.37c0,44.077,16.439,84.31,43.532,114.898
		c0.183,0.203,0.363,0.408,0.543,0.608c0.858,0.96,1.728,1.912,2.607,2.853c4.646,4.97,9.579,9.665,14.777,14.061
		c-25.53-30.2-40.919-69.239-40.919-111.88c0-95.749,77.619-173.37,173.38-173.37c42.629,0,81.68,15.39,111.87,40.921
		C305.006,54.871,257.484,30.999,204.384,30.999"/>
	<path style="fill:#BA3D20;" d="M209.514,205.599l-5.95,5.762l-50.167,48.579l50.167-48.579L209.514,205.599L209.514,205.599
		 M310.375,107.942l-173.92,99.283l-75.404,8.933l160.719,160.729c69.97-6.951,127.679-55.521,148.07-120.611
		c5.141-16.379,7.911-33.819,7.911-51.899c0-10.939-1.01-21.641-2.951-32.011l0,0L310.375,107.942 M310.37,107.937L130.156,186.16
		l180.21-78.22l-96.612,93.548l96.612-93.548L310.37,107.937"/>
	<polyline style="fill:#FFFFFF;" points="310.378,107.935 239.636,300.824 213.755,201.494 213.755,201.489 310.367,107.94 
		310.372,107.935 310.378,107.935 	"/>
	<polyline style="fill:#FFFFFF;" points="310.367,107.94 196.863,194.887 196.857,194.887 61.048,216.156 310.367,107.94 	"/>
	<polyline style="fill:#FFFFFF;" points="213.755,201.494 239.636,300.824 171.52,268.528 153.397,259.94 203.564,211.361 
		213.755,201.494 	"/>
	<polyline style="fill:#FFFFFF;" points="196.857,194.887 127.788,247.8 127.783,247.8 61.048,216.156 196.857,194.887 	"/>
	<polyline style="fill:#FFFFFF;" points="171.52,268.528 145.031,293.12 153.397,259.94 171.52,268.528 	"/>
	<polyline style="fill:#FFFFFF;" points="213.755,201.494 213.755,201.489 310.367,107.94 196.863,194.887 196.857,194.887 
		61.048,216.156 188.85,201.02 127.788,247.8 127.783,247.8 127.142,248.29 145.031,293.12 153.397,259.94 203.564,211.361 
		209.514,205.599 239.636,300.824 213.755,201.494 	"/>
	<polyline style="fill:#7F7F7F;" points="153.397,259.94 145.031,293.12 171.52,268.528 153.397,259.94 	"/>
	<polyline style="fill:#C2C2C2;" points="310.367,107.94 196.863,194.887 196.857,194.887 61.048,216.156 188.85,201.02 
		127.788,247.8 127.783,247.8 127.142,248.29 145.031,293.12 153.397,259.94 203.564,211.361 209.514,205.599 239.636,300.824 
		213.755,201.494 213.755,201.489 310.367,107.94 	"/>
</g>
</svg>